<?xml version="1.0" encoding="utf-8"?>
<!-- Generator: Adobe Illustrator 26.2.1, SVG Export Plug-In . SVG Version: 6.00 Build 0)  -->
<svg version="1.1" id="Layer_1" xmlns="http://www.w3.org/2000/svg" xmlns:xlink="http://www.w3.org/1999/xlink" x="0px" y="0px"
	 viewBox="0 0 175 106" style="enable-background:new 0 0 175 106;" xml:space="preserve">
<style type="text/css">
	.st0{fill:#FFFFFF;}
	.st1{fill:#F4C55C;}
</style>
<g>
	<path class="st0" d="M60.26,81.73c-6.62,0-11.29,4.83-11.29,11.42c0,6.59,4.67,11.42,11.29,11.42c6.62,0,11.29-4.83,11.29-11.42
		C71.55,86.56,66.88,81.73,60.26,81.73 M60.26,101.13c-4.47,0-7.31-3.44-7.31-7.98c0-4.57,2.85-7.98,7.31-7.98
		c4.44,0,7.31,3.41,7.31,7.98C67.58,97.68,64.7,101.13,60.26,101.13"/>
	<polygon class="st0" points="95.01,82.09 88.89,96.85 82.78,82.09 77.56,82.09 77.56,104.17 81.43,104.17 81.43,87.79 
		88.22,104.17 89.57,104.17 96.35,87.79 96.35,104.17 100.23,104.17 100.23,82.09 	"/>
	<polygon class="st0" points="39.09,91.13 27.24,91.13 27.24,82.09 23.37,82.09 23.37,104.17 27.24,104.17 27.24,94.54 39.09,94.54 
		39.09,104.17 42.96,104.17 42.96,82.09 39.09,82.09 	"/>
	<polygon class="st0" points="108.64,104.17 123.76,104.17 123.76,100.76 112.51,100.76 112.51,94.64 123.53,94.64 123.53,91.23 
		112.51,91.23 112.51,85.5 123.76,85.5 123.76,82.1 108.64,82.1 	"/>
	<path class="st0" d="M135.81,87.95c0-1.66,1.46-2.75,3.74-2.75c2.32,0,4.67,0.79,6.39,2.52l2.22-2.88
		c-2.05-1.99-4.83-3.08-8.27-3.08c-4.83,0-8.04,2.81-8.04,6.45c0,8.14,12.88,5.26,12.88,9.9c0,1.46-1.26,3.01-4.44,3.01
		c-3.08,0-5.46-1.42-6.98-3.05l-2.15,2.98c1.95,2.09,4.9,3.51,8.97,3.51c5.96,0,8.54-3.14,8.54-6.82
		C148.65,89.51,135.81,92.06,135.81,87.95"/>
	<path class="st0" d="M55.64,50.51c0-7.42-5.01-13.63-14.2-13.63H23.37v42.41h9V64.14h9.06C50.56,64.14,55.64,57.87,55.64,50.51
		 M40.23,56.22h-7.86V44.81h7.86c3.55,0,6.21,2.16,6.21,5.71C46.44,54,43.78,56.22,40.23,56.22"/>
	<path class="st0" d="M77.56,47.12v21.34c-1.54,2.13-4.22,4.19-6.56,4.19c-3.18,0-4.77-1.76-4.77-5.53V47.12h-8.28v22.37
		c0,6.29,3.55,10.55,10,10.55c4.05,0,7.46-1.57,9.61-3.46v2.7h8.32V47.12H77.56z"/>
	<path class="st0" d="M147.4,51.57c-2.77-3.18-6.59-4.86-11.05-4.86c-9,0-15.78,7.16-15.78,16.65c0,9.84,6.7,16.72,16.28,16.72
		c4.97,0,9.66-1.65,12.55-4.41l0.07-0.06l-3.64-5.56l-0.1,0.1c-2,2.02-5.62,3.1-8.01,3.1c-4.63,0-7.98-2.78-8.58-7.1h22.49v-1.94
		C151.63,59.11,150.17,54.74,147.4,51.57 M143.69,60.31h-14.67c0.42-3.15,2.58-6.77,7.33-6.77
		C141.72,53.53,143.48,57.73,143.69,60.31"/>
	<polygon class="st0" points="91.95,34.74 91.95,79.28 100.23,79.28 100.23,30.87 	"/>
	<path class="st0" d="M119.39,71.85c-0.46,0.4-1.53,0.8-2.64,0.8c-1.63,0-2.68-1.27-2.68-3.25V54.38h5.89v-7.26h-5.89V37.5
		l-8.34-3.91v37.97c0,5.47,3.12,8.48,8.8,8.48c2.87,0,5.23-0.68,6.68-1.9L119.39,71.85z"/>
	<polygon class="st0" points="129.27,31.62 129.27,22.54 120.99,22.54 120.99,27.74 100.26,18.03 57.95,37.81 57.95,44.51 
		100.26,24.74 149.04,47.59 149.04,40.88 	"/>
	<path class="st1" d="M100.26,18.03l20.73,9.71v-5.21h8.28v9.08l11.6,5.43c0-0.16,0.01-0.32,0.01-0.48
		c0-19.41-15.74-35.15-35.15-35.15c-17.77,0-32.45,13.19-34.81,30.32L94.9,20.54L100.26,18.03z"/>
	<g>
		<path class="st0" d="M147.78,30.18c1.98,0,3.59,1.61,3.59,3.59c0,1.98-1.61,3.59-3.59,3.59c-1.98,0-3.59-1.61-3.59-3.59
			C144.19,31.79,145.8,30.18,147.78,30.18z M147.77,36.68c1.61,0,2.92-1.3,2.92-2.91s-1.31-2.92-2.92-2.92
			c-1.61,0-2.91,1.31-2.91,2.92S146.16,36.68,147.77,36.68z M148.34,33.91l1.25,1.8h-0.85l-1.22-1.74h-0.19v1.74h-0.74v-3.93h1.31
			c0.34,0,0.57,0.08,0.76,0.24c0.27,0.2,0.42,0.5,0.42,0.85C149.08,33.31,148.78,33.78,148.34,33.91z M147.32,33.27h0.51
			c0.23,0,0.33-0.04,0.4-0.12c0.06-0.07,0.09-0.17,0.09-0.27c0-0.09-0.03-0.18-0.09-0.26c-0.07-0.08-0.17-0.14-0.4-0.14h-0.51V33.27
			z"/>
	</g>
</g>
</svg>
